<svg width="32" height="32" viewBox="0 0 256 256" xmlns="http://www.w3.org/2000/svg">
  <g transform="translate(0,256) scale(0.1,-0.1)" fill="transparent" stroke="none">
    <path d="M0 1280 l0 -1280 1280 0 1280 0 0 1280 0 1280 -1280 0 -1280 0 0
-1280z m2204 1126 c18 -8 41 -24 50 -37 l16 -23 0 -526 0 -525 -20 -33 -20
-33 -35 -15 -34 -14 -496 0 -496 0 -29 15 c-16 9 -36 29 -45 45 l-15 29 0 506
0 506 14 33 c14 34 56 70 91 79 11 2 237 5 503 6 l483 1 33 -14z m-1709 -1138
c26 -12 55 -54 55 -81 l0 -14 128 -6 127 -5 70 -22 c94 -30 169 -69 247 -128
l65 -50 169 -4 169 -4 40 -21 c22 -12 52 -34 67 -50 33 -34 58 -92 58 -133 l0
-30 15 0 c9 0 122 46 253 101 130 56 252 106 269 111 l33 9 40 -11 40 -11 39
-37 39 -37 11 -43 12 -42 -11 -41 c-6 -22 -26 -56 -43 -75 l-32 -35 -480 -210
c-264 -116 -498 -217 -520 -225 -22 -8 -67 -19 -102 -24 l-62 -8 -73 9 -73 9
-242 82 -242 82 -34 -39 -35 -40 -140 -3 -141 -3 -34 16 c-19 9 -39 27 -46 41
l-11 25 0 442 1 442 13 24 c7 13 24 30 37 37 l24 13 137 1 137 0 26 -12z" />
    <path d="M1156 2344 l-16 -15 0 -235 0 -234 85 0 85 0 0 48 c-1 26 -7 58 -15
72 -8 14 -14 33 -15 42 0 9 12 30 26 47 l26 31 33 0 32 0 27 -26 26 -27 0 -26
c0 -15 -7 -36 -15 -47 l-14 -19 -1 -47 0 -48 125 0 125 0 0 80 0 80 28 0 c15
0 36 -7 46 -15 l20 -15 42 0 42 0 31 26 31 26 0 53 0 53 -31 26 -31 26 -42 0
-42 0 -20 -15 c-10 -8 -31 -15 -46 -15 l-28 0 0 95 0 95 -249 0 -250 0 -15
-16z" />
    <path d="M1690 1665 l0 -105 -32 0 c-18 0 -42 7 -52 15 -23 17 -88 20 -117 5
-24 -13 -49 -61 -49 -95 0 -34 25 -82 49 -95 29 -15 94 -12 117 5 10 8 34 15
52 15 l32 0 0 -80 0 -80 239 0 238 0 27 21 26 20 0 240 0 239 -90 0 -90 0 0
-38 c0 -21 9 -55 19 -76 l20 -37 -11 -30 -10 -31 -34 -15 -33 -16 -32 13 -31
13 -15 35 -14 34 21 34 20 35 0 40 0 39 -125 0 -125 0 0 -105z" />
    <path d="M550 752 l0 -370 83 -30 c45 -16 159 -56 252 -88 l170 -57 102 -5
102 -5 45 12 c25 6 267 108 538 227 l493 215 22 27 23 27 0 47 c0 26 -5 59
-12 73 -15 34 -57 55 -109 55 l-42 0 -281 -121 -281 -120 -24 -30 c-12 -16
-42 -39 -65 -51 l-41 -22 -206 -4 -206 -4 -22 11 c-25 14 -28 36 -5 45 9 3
111 6 227 6 l212 0 35 18 35 18 23 44 c12 24 22 58 22 75 0 16 -9 49 -20 72
l-19 43 -33 20 -33 20 -150 0 c-83 0 -165 4 -183 9 -18 6 -62 32 -99 60 -81
61 -169 104 -252 126 -35 9 -117 19 -182 22 l-119 6 0 -371z" />
    <path d="M301 524 c-12 -15 -21 -37 -21 -49 0 -12 9 -34 21 -49 l20 -26 39 0
39 0 20 26 c12 15 21 37 21 49 0 12 -9 34 -21 49 l-20 26 -39 0 -39 0 -20 -26z" />
  </g>
  <g transform="translate(0,256) scale(0.1,-0.1)" fill="white" stroke="none">
    <path d="M1175 2423 c-35 -9 -77 -45 -91 -79 l-14 -33 0 -516 0 -516 15 -29
c9 -16 29 -36 45 -45 l29 -15 506 0 506 0 34 14 35 15 20 33 20 33 0 535 0
536 -16 23 c-9 13 -32 29 -50 37 l-33 14 -493 -1 c-271 -1 -502 -4 -513 -6z
m485 -168 l0 -95 38 0 c20 0 46 7 56 15 11 8 34 15 52 15 l32 0 31 -26 31 -26
0 -43 0 -43 -31 -26 -31 -26 -32 0 c-18 0 -41 7 -52 15 -10 8 -36 15 -56 15
l-38 0 0 -80 0 -80 -115 0 -115 0 0 38 c0 20 7 46 15 56 8 11 15 36 15 57 l0
36 -26 27 -27 26 -42 0 -43 0 -26 -31 -26 -31 0 -26 c1 -15 7 -38 15 -52 8
-14 14 -42 15 -62 l0 -38 -75 0 -75 0 0 224 0 225 16 15 15 16 240 0 239 0 0
-95z m270 -524 c0 -17 -10 -46 -21 -66 l-22 -36 12 -40 12 -39 29 -15 c37 -19
63 -19 100 0 l28 15 12 35 12 35 -21 43 c-12 24 -21 55 -21 70 l0 27 80 0 80
0 0 -229 0 -230 -26 -20 -27 -21 -228 0 -229 0 0 80 0 80 -42 0 -43 -1 -19
-14 c-11 -8 -35 -15 -53 -15 l-34 0 -24 24 c-13 13 -27 36 -31 50 l-6 26 12
31 c7 16 22 36 34 44 26 19 77 19 102 0 l19 -14 43 -1 42 0 0 105 0 105 115 0
115 0 0 -29z" />
    <path d="M161 1276 c-13 -7 -30 -24 -37 -37 l-13 -24 -1 -452 0 -452 11 -25
c7 -14 27 -32 46 -41 l34 -16 151 3 150 3 32 37 33 37 234 -79 234 -80 78 -10
79 -10 67 10 c36 5 84 16 106 24 22 8 256 109 520 225 l480 210 32 35 c17 19
37 53 43 76 l11 42 -6 37 c-9 53 -38 96 -86 128 l-42 28 -56 -1 -56 -1 -247
-107 c-136 -58 -250 -106 -253 -106 -3 0 -5 14 -5 30 0 41 -25 99 -58 133 -15
16 -45 38 -67 50 l-40 21 -169 4 -169 4 -65 50 c-78 59 -153 98 -247 128 l-70
22 -127 5 -128 6 0 14 c0 27 -29 69 -55 81 l-26 12 -147 0 -147 -1 -24 -13z
m681 -191 c82 -22 170 -66 251 -126 37 -28 81 -54 99 -60 18 -5 100 -9 183 -9
l150 0 33 -20 33 -21 21 -45 20 -46 -6 -32 c-9 -48 -40 -91 -79 -109 l-35 -17
-210 0 c-116 0 -217 -3 -226 -6 l-16 -6 0 -24 0 -23 21 -12 22 -11 216 4 216
4 41 22 c23 12 53 35 65 51 l24 30 281 120 281 121 31 0 c70 0 112 -44 112
-117 l0 -38 -23 -27 -22 -27 -493 -215 c-271 -119 -513 -221 -538 -227 l-45
-12 -93 5 -92 5 -169 58 c-94 31 -207 71 -252 87 l-83 30 0 360 0 361 110 -6
c61 -4 138 -14 172 -22z m-433 -571 c12 -15 21 -32 21 -39 0 -7 -9 -24 -21
-39 l-20 -26 -29 0 -29 0 -20 26 c-12 15 -21 32 -21 39 0 7 9 24 21 39 l20 26
29 0 29 0 20 -26z" />
  </g>
</svg>